<svg width="18" height="11" viewBox="0 0 18 11" fill="none" xmlns="http://www.w3.org/2000/svg">
  <path fill-rule="evenodd" clip-rule="evenodd"
    d="M0 5.5C0 5.33795 0.067725 5.18253 0.188276 5.06794C0.308828 4.95335 0.472331 4.88897 0.642816 4.88897H15.8043L11.7584 1.0444C11.6377 0.929669 11.5699 0.774056 11.5699 0.611797C11.5699 0.449538 11.6377 0.293925 11.7584 0.179191C11.8791 0.0644569 12.0428 3.82295e-09 12.2135 0C12.3842 -3.82295e-09 12.5479 0.0644569 12.6686 0.179191L17.8111 5.06739C17.871 5.12415 17.9185 5.19158 17.9509 5.26581C17.9833 5.34005 18 5.41963 18 5.5C18 5.58037 17.9833 5.65995 17.9509 5.73419C17.9185 5.80842 17.871 5.87585 17.8111 5.93261L12.6686 10.8208C12.5479 10.9355 12.3842 11 12.2135 11C12.0428 11 11.8791 10.9355 11.7584 10.8208C11.6377 10.7061 11.5699 10.5505 11.5699 10.3882C11.5699 10.2259 11.6377 10.0703 11.7584 9.9556L15.8043 6.11103H0.642816C0.472331 6.11103 0.308828 6.04665 0.188276 5.93206C0.067725 5.81747 0 5.66205 0 5.5Z"
    fill="#1C1F2B" />
</svg>